<?xml version="1.0" ?><svg height="128" viewBox="0 0 128 128" width="128" xmlns="http://www.w3.org/2000/svg"><defs><style>
      .cls-1 {
        fill: #e9faff;
      }

      .cls-2 {
        fill: #fff;
      }

      .cls-3 {
        fill: #e8f0fc;
      }

      .cls-4 {
        fill: #ff859e;
      }

      .cls-5, .cls-7 {
        fill: none;
        stroke-miterlimit: 10;
        stroke-width: 2px;
      }

      .cls-5 {
        stroke: #c7dbf9;
      }

      .cls-6 {
        fill: #c7dbf9;
      }

      .cls-7 {
        stroke: #556193;
      }
    </style></defs><title/><g id="circle"><circle class="cls-1" cx="66.5" cy="66.5" r="57.5"/></g><g id="icon"><g><g><path class="cls-2" d="M97,59.63V45h4V40H77v5h4V59.63a25.6,25.6,0,1,0,16,0Z"/><g><g><path class="cls-3" d="M98,42H93V58.87a21.67,21.67,0,0,1,3,1.32V45h5V40H98Z"/><path class="cls-3" d="M104.24,63.77a25.36,25.36,0,0,1-34.42,37,25.36,25.36,0,1,0,34.42-37Z"/></g><path class="cls-4" d="M107.57,76.64c-16.26,1.08-12.75,9.19-38,6.65a19.1,19.1,0,0,0,0,2.27A19.81,19.81,0,0,0,87.86,104c.48,0,1,0,1.43,0a19.11,19.11,0,0,0,9.34-2.29,19.88,19.88,0,0,0,8.94-25.07ZM86.51,94.19A2.45,2.45,0,1,1,89,91.74,2.45,2.45,0,0,1,86.51,94.19ZM99,89.29a3.21,3.21,0,1,1,3.2-3.2A3.2,3.2,0,0,1,99,89.29Z"/><circle class="cls-4" cx="84" cy="75" r="3"/></g></g><g><g><g><path class="cls-5" d="M63.72,87.75A34.5,34.5,0,1,1,86,40.43"/><path class="cls-5" d="M63.4,79.61A14.65,14.65,0,0,1,60,80,15,15,0,1,1,74.81,62.63"/><circle class="cls-5" cx="46" cy="42" r="4"/><g><line class="cls-5" x1="57.43" x2="58.32" y1="21.19" y2="11.91"/><line class="cls-5" x1="49.76" x2="50.88" y1="101.18" y2="89.58"/><line class="cls-5" x1="39.37" x2="34.27" y1="23.57" y2="11.26"/><line class="cls-5" x1="31.2" x2="18.04" y1="38.56" y2="29.58"/><line class="cls-5" x1="70.56" x2="82.01" y1="30.64" y2="14.76"/><line class="cls-5" x1="19.43" x2="10.16" y1="51.47" y2="50.58"/><line class="cls-5" x1="28.53" x2="9.81" y1="66.38" y2="75.32"/><line class="cls-5" x1="33.75" x2="28.37" y1="83.12" y2="90.68"/></g></g><circle class="cls-6" cx="84.5" cy="11.5" r="1.5"/><circle class="cls-6" cx="58.5" cy="8.5" r="1.5"/><circle class="cls-6" cx="32.5" cy="8.5" r="1.5"/><circle class="cls-6" cx="15.5" cy="27.5" r="1.5"/><circle class="cls-6" cx="6.5" cy="50.5" r="1.5"/><circle class="cls-6" cx="6.5" cy="76.5" r="1.5"/><circle class="cls-6" cx="26.5" cy="93.5" r="1.5"/><circle class="cls-6" cx="49.5" cy="104.5" r="1.5"/></g><path class="cls-7" d="M97,59.63V45h4V40H77v5h4V59.63a25.6,25.6,0,1,0,16,0Z"/></g></g></g></svg>