<?xml version="1.0" ?><svg style="enable-background:new 0 0 512 512;" version="1.1" viewBox="0 0 512 512" xml:space="preserve" xmlns="http://www.w3.org/2000/svg" xmlns:xlink="http://www.w3.org/1999/xlink"><g id="_x31_5_x2C__test_x2C__Chemist_x2C__lab_x2C__practicum_x2C__tubes"><g id="XMLID_7137_"><path d="M448.5,353.5c13.81,0,25,11.19,25,25s-11.19,25-25,25c-13.81,0-25-11.19-25-25    S434.69,353.5,448.5,353.5z" id="XMLID_2530_" style="fill:#9BC9FF;"/><circle cx="68.5" cy="408.5" id="XMLID_2529_" r="30" style="fill:#9BC9FF;"/><path d="M438.5,93.5c0,8.28-6.72,15-15,15h-95c-8.266,0-15-6.72-15-15    c0-8.28,6.72-15,15-15h95C431.766,78.5,438.5,85.22,438.5,93.5z" id="XMLID_2528_" style="fill:#FFFFFF;"/><path d="M203.5,93.5c0,8.28-6.72,15-15,15h-95c-8.266,0-15-6.72-15-15    c0-8.28,6.72-15,15-15h95C196.766,78.5,203.5,85.22,203.5,93.5z" id="XMLID_2527_" style="fill:#FFFFFF;"/><path d="M348.5,443.5c8.28,0,15,6.72,15,15c0,4.14-1.68,7.89-4.4,10.6    c-2.71,2.721-6.46,4.4-10.6,4.4h-180c-8.28,0-15-6.72-15-15c0-4.14,1.68-7.89,4.4-10.6c2.71-2.721,6.46-4.4,10.6-4.4h65h50H348.5z    " id="XMLID_2526_" style="fill:#FFFFFF;"/><path d="M283.5,413.5c8.28,0,15,6.72,15,15c0,4.14-1.68,7.89-4.4,10.6    c-2.71,2.721-6.46,4.4-10.6,4.4h-50c-8.28,0-15-6.72-15-15c0-4.14,1.68-7.89,4.4-10.6c2.71-2.721,6.46-4.4,10.6-4.4h10h30H283.5z" id="XMLID_2525_" style="fill:#9BC9FF;"/><rect height="175" id="XMLID_2524_" style="fill:#FFFFFF;" width="30" x="243.5" y="238.5"/><path d="M273.5,68.5v100h-30v-100c0-8.28,6.72-15,15-15c4.14,0,7.89,1.68,10.6,4.4    C271.82,60.61,273.5,64.36,273.5,68.5z" id="XMLID_2523_" style="fill:#FFFFFF;"/><path d="M453.5,188v31c0,10.77-8.73,19.5-19.5,19.5c-39.914,0-268.949,0-351,0    c-10.77,0-19.5-8.73-19.5-19.5v-31c0-10.77,8.73-19.5,19.5-19.5c181.585,0,163.898,0,351,0C444.77,168.5,453.5,177.23,453.5,188z" id="XMLID_2522_" style="fill:#FFFFFF;"/><path d="M423.5,238.5V296c0,13.12-5.32,24.99-13.91,33.59    c-8.6,8.59-20.47,13.91-33.59,13.91c-26.23,0-47.5-21.27-47.5-47.5v-57.5H423.5z" id="XMLID_2521_" style="fill:#9BC9FF;"/><rect height="60" id="XMLID_2520_" style="fill:#9BC9FF;" width="95" x="328.5" y="108.5"/><rect height="60" id="XMLID_2519_" style="fill:#9BC9FF;" width="95" x="93.5" y="108.5"/><path d="M188.5,238.5V296c0,13.12-5.32,24.99-13.91,33.59    c-8.6,8.59-20.47,13.91-33.59,13.91c-26.23,0-47.5-21.27-47.5-47.5v-57.5H188.5z" id="XMLID_2518_" style="fill:#9BC9FF;"/><circle cx="466" cy="121" id="XMLID_2517_" r="7.5" style="fill:#1E81CE;"/><circle cx="461" cy="273.5" id="XMLID_2516_" r="7.5" style="fill:#1E81CE;"/><circle cx="361" cy="391" id="XMLID_2515_" r="7.5" style="fill:#1E81CE;"/><circle cx="346" cy="46" id="XMLID_2514_" r="7.5" style="fill:#1E81CE;"/><circle cx="216" cy="346" id="XMLID_2513_" r="7.5" style="fill:#1E81CE;"/><circle cx="156" cy="406" id="XMLID_2512_" r="7.5" style="fill:#1E81CE;"/><circle cx="126" cy="41" id="XMLID_2511_" r="7.5" style="fill:#1E81CE;"/><circle cx="48.5" cy="141" id="XMLID_2510_" r="7.5" style="fill:#1E81CE;"/><circle cx="46" cy="326" id="XMLID_2509_" r="7.5" style="fill:#1E81CE;"/><path d="M243.5,418.5c-2.761,0-5-2.238-5-5v-175c0-2.761,2.239-5,5-5s5,2.239,5,5v175    C248.5,416.262,246.261,418.5,243.5,418.5z" id="XMLID_2508_" style="fill:#1E81CE;"/><path d="M273.5,418.5c-2.761,0-5-2.238-5-5v-175c0-2.761,2.239-5,5-5s5,2.239,5,5v175    C278.5,416.262,276.261,418.5,273.5,418.5z" id="XMLID_2507_" style="fill:#1E81CE;"/><path d="M273.5,173.5c-2.761,0-5-2.239-5-5v-100c0-2.669-1.04-5.176-2.929-7.058    c-1.895-1.902-4.401-2.942-7.071-2.942c-5.514,0-10,4.486-10,10v100c0,2.761-2.239,5-5,5s-5-2.239-5-5v-100    c0-11.028,8.972-20,20-20c5.347,0,10.37,2.085,14.142,5.871c3.773,3.76,5.858,8.782,5.858,14.129v100    C278.5,171.261,276.261,173.5,273.5,173.5z" id="XMLID_2506_" style="fill:#1E81CE;"/><path d="M423.5,113.5c-2.761,0-5-2.239-5-5s2.239-5,5-5c5.514,0,10-4.486,10-10    c0-2.669-1.04-5.176-2.929-7.058c-1.895-1.902-4.401-2.942-7.071-2.942h-95c-5.514,0-10,4.486-10,10    c0,2.669,1.04,5.176,2.929,7.058c1.895,1.902,4.401,2.942,7.071,2.942c2.761,0,5,2.239,5,5s-2.239,5-5,5    c-5.347,0-10.37-2.085-14.142-5.871c-3.773-3.76-5.858-8.782-5.858-14.129c0-11.028,8.972-20,20-20h95    c5.347,0,10.37,2.085,14.142,5.871c3.773,3.76,5.858,8.782,5.858,14.129C443.5,104.528,434.528,113.5,423.5,113.5z" id="XMLID_2505_" style="fill:#1E81CE;"/><path d="M423.5,173.5c-2.761,0-5-2.239-5-5v-55h-85v55c0,2.761-2.239,5-5,5s-5-2.239-5-5    v-60c0-2.761,2.239-5,5-5h95c2.761,0,5,2.239,5,5v60C428.5,171.261,426.261,173.5,423.5,173.5z" id="XMLID_2504_" style="fill:#1E81CE;"/><path d="M376,348.5c-28.949,0-52.5-23.552-52.5-52.5v-57.5c0-2.761,2.239-5,5-5    s5,2.239,5,5V296c0,23.435,19.065,42.5,42.5,42.5c11.346,0,22.02-4.421,30.056-12.447C414.08,318.021,418.5,307.347,418.5,296    v-57.5c0-2.761,2.239-5,5-5s5,2.239,5,5V296c0,14.016-5.46,27.199-15.372,37.123C403.199,343.041,390.015,348.5,376,348.5z" id="XMLID_2503_" style="fill:#1E81CE;"/><path d="M188.5,173.5c-2.761,0-5-2.239-5-5v-60c0-2.761,2.239-5,5-5s5,2.239,5,5v60    C193.5,171.261,191.261,173.5,188.5,173.5z" id="XMLID_2502_" style="fill:#1E81CE;"/><path d="M93.5,173.5c-2.761,0-5-2.239-5-5v-60c0-2.761,2.239-5,5-5s5,2.239,5,5v60    C98.5,171.261,96.261,173.5,93.5,173.5z" id="XMLID_2501_" style="fill:#1E81CE;"/><path d="M141,348.5c-28.949,0-52.5-23.552-52.5-52.5v-57.5c0-2.761,2.239-5,5-5    s5,2.239,5,5V296c0,23.435,19.065,42.5,42.5,42.5c11.346,0,22.02-4.421,30.056-12.447C179.08,318.021,183.5,307.347,183.5,296    v-57.5c0-2.761,2.239-5,5-5s5,2.239,5,5V296c0,14.016-5.46,27.199-15.372,37.123C168.199,343.041,155.015,348.5,141,348.5z" id="XMLID_2500_" style="fill:#1E81CE;"/><path d="M188.5,113.5h-95c-5.347,0-10.37-2.085-14.142-5.871    C75.585,103.87,73.5,98.847,73.5,93.5c0-11.028,8.972-20,20-20h95c5.347,0,10.37,2.085,14.142,5.871    c3.773,3.76,5.858,8.782,5.858,14.129C208.5,104.528,199.528,113.5,188.5,113.5z M93.5,83.5c-5.514,0-10,4.486-10,10    c0,2.669,1.04,5.176,2.929,7.058c1.895,1.902,4.401,2.942,7.071,2.942h95c5.514,0,10-4.486,10-10c0-2.669-1.04-5.176-2.929-7.058    c-1.895-1.902-4.401-2.942-7.071-2.942H93.5z" id="XMLID_7224_" style="fill:#1E81CE;"/><path d="M283.5,448.5c-2.761,0-5-2.238-5-5s2.239-5,5-5c2.67,0,5.176-1.04,7.058-2.929    c1.902-1.895,2.942-4.402,2.942-7.071c0-5.514-4.486-10-10-10h-50c-2.67,0-5.176,1.04-7.058,2.929    c-1.902,1.895-2.942,4.402-2.942,7.071c0,5.514,4.486,10,10,10c2.761,0,5,2.238,5,5s-2.239,5-5,5c-11.028,0-20-8.972-20-20    c0-5.347,2.085-10.369,5.871-14.142c3.758-3.773,8.781-5.858,14.129-5.858h50c11.028,0,20,8.972,20,20    c0,5.347-2.085,10.369-5.871,14.142C293.871,446.415,288.849,448.5,283.5,448.5z" id="XMLID_2497_" style="fill:#1E81CE;"/><path d="M348.5,478.5h-180c-11.028,0-20-8.972-20-20c0-5.347,2.085-10.369,5.871-14.142    c3.758-3.773,8.781-5.858,14.129-5.858h180c11.028,0,20,8.972,20,20c0,5.347-2.085,10.369-5.871,14.142    C358.871,476.415,353.849,478.5,348.5,478.5z M168.5,448.5c-2.67,0-5.176,1.04-7.058,2.929c-1.902,1.895-2.942,4.402-2.942,7.071    c0,5.514,4.486,10,10,10h180c2.67,0,5.176-1.04,7.058-2.929c1.902-1.895,2.942-4.402,2.942-7.071c0-5.514-4.486-10-10-10H168.5z" id="XMLID_7213_" style="fill:#1E81CE;"/><path d="M434,243.5H83c-13.509,0-24.5-10.991-24.5-24.5v-31    c0-13.509,10.991-24.5,24.5-24.5h351c13.509,0,24.5,10.991,24.5,24.5v31C458.5,232.509,447.509,243.5,434,243.5z M83,173.5    c-7.995,0-14.5,6.505-14.5,14.5v31c0,7.995,6.505,14.5,14.5,14.5h351c7.995,0,14.5-6.505,14.5-14.5v-31    c0-7.995-6.505-14.5-14.5-14.5H83z" id="XMLID_7197_" style="fill:#1E81CE;"/><path d="M448.5,408.5c-16.542,0-30-13.458-30-30s13.458-30,30-30s30,13.458,30,30    S465.042,408.5,448.5,408.5z M448.5,358.5c-11.028,0-20,8.972-20,20s8.972,20,20,20s20-8.972,20-20S459.528,358.5,448.5,358.5z" id="XMLID_7155_" style="fill:#1E81CE;"/><path d="M68.5,443.5c-19.299,0-35-15.701-35-35s15.701-35,35-35s35,15.701,35,35    S87.799,443.5,68.5,443.5z M68.5,383.5c-13.785,0-25,11.215-25,25s11.215,25,25,25c13.785,0,25-11.215,25-25    S82.285,383.5,68.5,383.5z" id="XMLID_7138_" style="fill:#1E81CE;"/></g></g><g id="Layer_1"/></svg>