<?xml version="1.0" ?><svg viewBox="0 0 22.591 22.582" xmlns="http://www.w3.org/2000/svg"><g data-name="Layer 2" id="Layer_2"><g data-name="Layer 1" id="Layer_1-2"><path d="M20.705,10.611A3.548,3.548,0,0,0,19.63,6.66V3.635h2.61a.343.343,0,0,0,.342-.343A3.3,3.3,0,0,0,19.287,0H3.3A3.3,3.3,0,0,0,0,3.292V22.24a.342.342,0,0,0,.342.342H19.287a.343.343,0,0,0,.343-.342V13.729l.421.423a1.483,1.483,0,0,0,2.1-2.1Zm-.464-1.218a2.851,2.851,0,0,1-5.7,0A2.851,2.851,0,0,1,20.241,9.393ZM14.38,12.324a.343.343,0,0,0-.343.342v6.6h-1.6v-4.52A.343.343,0,0,0,12.1,14.4H9.817a.343.343,0,0,0-.342.343v4.52h-1.6V17.029a.342.342,0,0,0-.342-.342H5.254a.342.342,0,0,0-.342.342v2.238h-1.6V14.89l2.861-2.816,1.487.813a.34.34,0,0,0,.406-.059l2.154-2.152,2.2.93a.344.344,0,0,0,.392-.091L13.951,10.2a3.546,3.546,0,0,0,2.367,2.559v6.508h-1.6v-6.6A.342.342,0,0,0,14.38,12.324Zm-2.624,2.765v4.178h-1.6V15.089ZM7.193,17.371v1.9H5.6v-1.9ZM19.287.684A2.615,2.615,0,0,1,21.876,2.95H6.573A3.289,3.289,0,0,0,5.3.684ZM18.945,21.9H.684V3.292a2.611,2.611,0,0,1,5.222,0,.344.344,0,0,0,.343.343h12.7V6.223a3.55,3.55,0,0,0-5.084,3.035l-1.4,1.621-2.18-.923a.345.345,0,0,0-.376.073L7.767,12.164l-1.486-.813a.344.344,0,0,0-.4.056L3.315,13.93V5.923a.342.342,0,0,0-.684,0V19.609a.343.343,0,0,0,.342.343H16.661A.343.343,0,0,0,17,19.609v-6.7a3.456,3.456,0,0,0,1.605-.2l.337.337Zm2.719-8.231a.8.8,0,0,1-1.129,0L19.258,12.39a3.569,3.569,0,0,0,1.129-1.129l1.277,1.277A.8.8,0,0,1,21.664,13.667ZM17.732,7.8a.342.342,0,0,1-.342.341,1.256,1.256,0,0,0-1.255,1.255.342.342,0,0,1-.684,0A1.941,1.941,0,0,1,17.39,7.454.343.343,0,0,1,17.732,7.8ZM9.353,5.923A.342.342,0,0,1,9.7,5.581h3.072a.342.342,0,1,1,0,.684H9.7A.342.342,0,0,1,9.353,5.923Zm-4.441,0a.342.342,0,0,1,.342-.342H7.871a.342.342,0,0,1,0,.684H5.254A.342.342,0,0,1,4.912,5.923Zm0,2.281a.342.342,0,0,1,.342-.342h5.233a.342.342,0,1,1,0,.684H5.254A.342.342,0,0,1,4.912,8.2Z" data-name="financial market research" id="financial_market_research"/></g></g></svg>